<?xml version="1.0" encoding="utf-8"?>
<!-- Generator: Adobe Illustrator 16.0.0, SVG Export Plug-In . SVG Version: 6.00 Build 0)  -->
<!DOCTYPE svg PUBLIC "-//W3C//DTD SVG 1.1//EN" "http://www.w3.org/Graphics/SVG/1.1/DTD/svg11.dtd">
<svg version="1.1" id="Capa_1" xmlns="http://www.w3.org/2000/svg" xmlns:xlink="http://www.w3.org/1999/xlink" x="0px" y="0px"
	 width="200px" height="200px" viewBox="0 0 200 200" enable-background="new 0 0 200 200" xml:space="preserve">
<g>
	<path fill-rule="evenodd" clip-rule="evenodd" fill="#FFFFFF" d="M100.606,94.804c16.947,0.006,30.625,13.662,30.625,30.575
		c0.004,16.942-13.752,30.694-30.678,30.673c-16.859-0.022-30.583-13.784-30.592-30.675
		C69.955,108.496,83.684,94.797,100.606,94.804z"/>
	<path fill-rule="evenodd" clip-rule="evenodd" fill="#FFFFFF" d="M130.989,111.773c9.161-5.113,23.025-3.285,30.522,7.676
		c7.228,10.565,4.657,25.109-5.721,32.597c-10.443,7.532-24.211,5.084-31.436-3.319
		C134.081,137.789,136.289,125.503,130.989,111.773z"/>
	<path fill-rule="evenodd" clip-rule="evenodd" fill="#FFFFFF" d="M53.506,152.087c-7.641,5.502-18.521,5.043-26.117-1.075
		c-7.604-6.123-10.171-16.851-6.168-25.856c4.165-9.364,13.668-13.463,20.313-12.848c-0.158,2.345-0.496,4.688-0.441,7.023
		c0.188,8.147,3.607,14.756,9.893,19.893c0.651,0.533,0.894,0.952,0.682,1.851C50.761,144.944,51.28,147.788,53.506,152.087z"/>
	<path fill-rule="evenodd" clip-rule="evenodd" fill="#FFFFFF" d="M75.469,103.525c-6.065-7.484-5.759-19.25,0.699-27.052
		c6.513-7.865,17.856-10.157,26.881-5.418c9.831,5.161,13.268,15.927,11.244,23.928C99.532,89.421,86.605,92.195,75.469,103.525z"/>
	<path fill-rule="evenodd" clip-rule="evenodd" fill="#FFFFFF" d="M67.694,129.86c-3.064-0.34-5.92,0.142-8.593,1.531
		c-2.643,1.375-4.65,3.423-6.265,6.254c-1.364-1.388-2.729-2.588-3.873-3.972c-11.398-13.781-3.707-35.053,13.866-38.346
		c1.679-0.313,3.418-0.302,5.13-0.437c0.711-0.057,1.042,0.223,1.207,0.983c0.724,3.33,2.1,6.387,4.177,9.096
		c0.472,0.618,0.385,0.985-0.016,1.567C68.515,113.535,66.733,121.28,67.694,129.86z"/>
	<path fill-rule="evenodd" clip-rule="evenodd" fill="#FFFFFF" d="M53.768,144.215c0.08-7.227,6.542-12.806,13.684-11.736
		c0.338,0.051,0.813,0.454,0.894,0.775c1.396,5.652,4.091,10.59,8.063,14.83c0.423,0.451,0.427,0.796,0.184,1.321
		c-2.182,4.713-7.29,7.421-12.678,6.693c-4.941-0.667-9.181-4.927-9.915-9.968C53.906,145.494,53.845,144.854,53.768,144.215z"/>
	<path fill-rule="evenodd" clip-rule="evenodd" fill="#FFFFFF" d="M161.1,150.835c5.653-7.391,6.189-8.864,7.133-19.539
		c3.642-1.069,10.267,0.929,12.866,7.188c2.298,5.538-0.005,12.036-5.32,14.983C170.852,156.198,164.053,154.979,161.1,150.835z"/>
	<path fill-rule="evenodd" clip-rule="evenodd" fill="#FFFFFF" d="M139.978,106.552c-3.553,0.271-6.939,1.199-10.162,2.858
		c-0.965-1.41-1.875-2.854-2.9-4.213c-2.598-3.439-5.785-6.237-9.507-8.409c-0.52-0.302-0.701-0.582-0.567-1.176
		c0.664-2.925,0.696-5.881,0.293-8.845C128.69,85.637,139.644,95.408,139.978,106.552z"/>
	<path fill-rule="evenodd" clip-rule="evenodd" fill="#FFFFFF" d="M70.572,80.699c-1.592,3.669-2.213,7.544-1.935,11.679
		c-5.072-0.205-9.75,0.846-14.081,3.254c-2.71-4.121-1.755-10.24,2.114-13.867C60.442,78.233,66.707,77.728,70.572,80.699z"/>
</g>
<path fill="#FFFFFF" d="M196.654,79.213c-1.854-1.854-17.729,0-17.729,0c1.378,6.505-1.648,10.51-3.279,12.132
	c-0.004,0-0.004-0.002-0.009-0.007c-6.615-10.687-22.186-35.061-26.805-35.333c-3.105-0.181-27.346-0.351-42.654-0.437V55.5
	c-0.417,0-2.76,0.014-6.239,0.03c-3.477-0.016-5.819-0.03-6.237-0.03v0.067c-15.307,0.086-39.549,0.256-42.654,0.437
	c-4.618,0.273-20.193,24.647-26.804,35.333c-0.003,0.005-0.008,0.007-0.008,0.007c-1.634-1.622-4.66-5.627-3.281-12.132
	c0,0-15.878-1.854-17.73,0c-1.849,1.853-5.079,11.91-1.849,11.381c2.85-0.47,13.869,2.942,17.527,5.056
	c-4.442,3.63-10.337,8.583-12.882,11.288c-4.402,4.677-1.049,40.214-0.331,47.291l2.481-0.254
	c-1.613-15.944-3.131-42.35-0.331-45.327c4.122-4.381,17.986-15.377,18.124-15.49l0.29-0.322
	c10.169-16.447,22.289-33.791,24.942-34.34c3.465-0.202,35.08-0.394,48.744-0.47c13.665,0.076,45.271,0.264,48.719,0.47
	c2.682,0.55,14.803,17.893,24.971,34.34l0.284,0.322c0.14,0.113,14.005,11.109,18.125,15.49c2.8,2.978,1.284,29.383-0.33,45.327
	l2.482,0.254c0.716-7.077,4.069-42.614-0.332-47.291c-2.547-2.705-8.441-7.658-12.881-11.288c3.659-2.114,14.677-5.526,17.528-5.056
	C201.733,91.123,198.506,81.066,196.654,79.213z"/>
</svg>
